<svg xmlns="http://www.w3.org/2000/svg" viewBox="0 0 512 512">
  <rect width="512" height="512" fill="#f97316"/>
  <g transform="translate(64, 64) scale(16)" stroke="white" stroke-width="2" fill="none" stroke-linecap="round" stroke-linejoin="round">
    <path d="M9 12h.01"/>
    <path d="M15 12h.01"/>
    <path d="M10 16c.5.3 1.2.5 2 .5s1.5-.2 2-.5"/>
    <path d="M19 6.3a9 9 0 0 1 1.8 3.9 2 2 0 0 1 0 3.6 9 9 0 0 1-17.6 0 2 2 0 0 1 0-3.6A9 9 0 0 1 12 3c2 0 3.5 1.1 3.5 2.5s-.9 1.5-2 1.5c-2 0-3.5 1.1-3.5 2.5"/>
  </g>
</svg>
